# xmcd
#
# Track frame offsets:
#	150
#	14580
#	29553
#	47405
#	62905
#	75440
#	96915
#	114898
#	129158
#	150353
#	165758
#	185075
#
# Disc length: 2732 seconds
#
# Revision: 1
# Processed by: cddbd v1.4PL0 Copyright (c) Steve Scherf et al.
# Submitted via: audiograbber 1.81.03
#
DISCID=860aaa0c
DTITLE=Various Canadian's - The`Great Canadian Blues Revue
DYEAR=1994
DGENRE=
TTITLE0=Powder Blues - Disappearing Baby Blues
TTITLE1=Blue Willow - Mikey
TTITLE2=Wailin Walker Band - Down The Highway
TTITLE3=Doc Fingers - New Shoes Blues
TTITLE4=Trickbag - Moose Legs Boogie
TTITLE5=Danny`Brooks - Waiting For Your Ship To Come In
TTITLE6=Doc Fingers - Cakewalk
TTITLE7=Trickbag - Bourbon Street
TTITLE8=Trickbag - Mind Your Business
TTITLE9=Blue Willow - Spend Money
TTITLE10=Doc Fingers - Hey Carl
TTITLE11=Wailin Walker Band - Do Something Nice
EXTD=
EXTT0=
EXTT1=
EXTT2=
EXTT3=
EXTT4=
EXTT5=
EXTT6=
EXTT7=
EXTT8=
EXTT9=
EXTT10=
EXTT11=
PLAYORDER=
